<!-- Generated by IcoMoon.io -->
<svg version="1.1" xmlns="http://www.w3.org/2000/svg" width="32" height="32" viewBox="0 0 32 32">
<title>delete</title>
<path fill="#102e8e" d="M21.176 8v-2.824c0-1.17-0.733-1.882-1.93-1.882h-6.493c-1.195 0-1.929 0.712-1.929 1.882v2.824h-5.647v1.882h1.882v16c0 1.696 1.062 2.824 2.824 2.824h12.235c1.721 0 2.824-1.047 2.824-2.824v-16h1.882v-1.882h-5.647zM12.706 5.176h6.588l-0.040 2.824h-6.549v-2.824zM23.059 26.824h-14.118v-16.941h14.118v16.941zM14.588 11.765h-1.835l-0.047 12.235h1.882v-12.235zM19.294 11.765h-1.882v12.235h1.882v-12.235z"></path>
</svg>
