<!-- Generated by IcoMoon.io -->
<svg version="1.1" xmlns="http://www.w3.org/2000/svg" width="32" height="32" viewBox="0 0 32 32">
<title>edit</title>
<path fill="#303289" d="M24.737 14.477c-0.161-0.279-0.455-0.474-0.805-0.474s-0.642 0.195-0.804 0.471c-0.084-0.022-0.136-0.002-0.136 0.14v9.158c0 0.673-0.562 1.221-1.251 1.221h-14.38c-0.689 0-1.251-0.548-1.251-1.221 0 0 0-15.873 0-16.484 0-0.674 0.561-1.221 1.251-1.221h11.255c0.072 0 0.108-0.014 0.13-0.036 0.061 0.012 0.119 0.036 0.183 0.036 0.518 0 0.938-0.41 0.938-0.916s-0.421-0.916-0.938-0.916c-0.075 0-0.141 0.025-0.213 0.041-0.023-0.025-0.056-0.041-0.1-0.041h-11.88c-1.38 0-2.502 1.096-2.502 2.442v17.704c0 1.347 1.122 2.442 2.502 2.442h15.632c1.38 0 2.501-1.096 2.501-2.442v-9.768c0-0.079-0.053-0.119-0.133-0.136zM26.506 4.531c-0.389-0.334-0.982-0.297-1.324 0.082l-14.465 16.035c-0.343 0.379-0.305 0.958 0.084 1.292s0.982 0.297 1.324-0.082l14.466-16.034c0.341-0.379 0.304-0.959-0.085-1.293z"></path>
</svg>
