<!-- Generated by IcoMoon.io -->
<svg version="1.1" xmlns="http://www.w3.org/2000/svg" width="32" height="32" viewBox="0 0 32 32">
<title>preview</title>
<path fill="#00a0e9" d="M30.515 17.873c-0.263 0.32-6.55 7.811-14.515 7.811s-14.252-7.491-14.516-7.811l-0.546-0.66 0.546-0.661c0.264-0.319 6.55-7.81 14.516-7.81s14.252 7.491 14.515 7.81l0.546 0.661-0.546 0.66zM16 10.776c-5.765 0-10.748 4.674-12.422 6.437 1.677 1.761 6.67 6.439 12.422 6.439 5.765 0 10.748-4.674 12.422-6.437-1.677-1.762-6.67-6.439-12.422-6.439zM16 21.618c-2.35 0-4.262-1.976-4.262-4.405s1.912-4.405 4.262-4.405 4.262 1.976 4.262 4.405-1.912 4.405-4.262 4.405zM16 14.841c-1.265 0-2.295 1.064-2.295 2.373s1.030 2.372 2.295 2.372 2.295-1.064 2.295-2.372-1.030-2.373-2.295-2.373z"></path>
</svg>
