<!-- Generated by IcoMoon.io -->
<svg version="1.1" xmlns="http://www.w3.org/2000/svg" width="32" height="32" viewBox="0 0 32 32">
<title>share</title>
<path d="M23.499 19.503c-1.74 0-3.233 0.999-3.981 2.445l-8.038-4.884c0.323-0.621 0.523-1.315 0.523-2.063 0-0.511-0.104-0.993-0.26-1.451l8.422-4.55c0.824 0.916 2.006 1.503 3.334 1.503 2.486 0 4.5-2.015 4.5-4.5s-2.014-4.5-4.5-4.5c-2.484 0-4.5 2.015-4.5 4.5 0 0.436 0.081 0.849 0.197 1.247l-8.495 4.589c-0.815-0.825-1.946-1.338-3.199-1.338-2.485 0-4.5 2.015-4.5 4.5s2.015 4.5 4.5 4.5c1.002 0 1.919-0.339 2.667-0.893l8.833 5.367c0 0.010-0.003 0.019-0.003 0.027 0 2.485 2.016 4.5 4.5 4.5 2.486 0 4.5-2.015 4.5-4.5s-2.014-4.499-4.5-4.499zM23.499 3.503c1.379 0 2.5 1.122 2.5 2.5s-1.121 2.5-2.5 2.5-2.5-1.122-2.5-2.5 1.121-2.5 2.5-2.5zM7.502 17.501c-1.378 0-2.5-1.122-2.5-2.5s1.122-2.5 2.5-2.5 2.5 1.122 2.5 2.5-1.121 2.5-2.5 2.5zM23.499 26.503c-1.379 0-2.5-1.121-2.5-2.5s1.121-2.5 2.5-2.5 2.5 1.121 2.5 2.5-1.121 2.5-2.5 2.5z"></path>
</svg>
