<!-- Generated by IcoMoon.io -->
<svg version="1.1" xmlns="http://www.w3.org/2000/svg" width="32" height="32" viewBox="0 0 32 32">
<title>time</title>
<path fill="#31337d" d="M15.812 30.479c-8.1 0-14.667-6.567-14.667-14.667s6.567-14.667 14.667-14.667 14.667 6.567 14.667 14.667-6.565 14.667-14.667 14.667zM15.812 3.896c-6.581 0-11.917 5.335-11.917 11.917 0 6.581 5.335 11.917 11.917 11.917 6.581 0 11.917-5.336 11.917-11.917 0-6.583-5.336-11.917-11.917-11.917zM21.771 17.188h-5.959c-0.76 0-1.375-0.616-1.375-1.375v-8.251c0-0.759 0.615-1.375 1.375-1.375 0.759 0 1.375 0.616 1.375 1.375v6.875h4.584c0.759 0 1.375 0.616 1.375 1.375s-0.616 1.376-1.375 1.376z"></path>
</svg>
